<svg xmlns="http://www.w3.org/2000/svg" width="89.126" height="88.953" viewBox="0 0 89.126 88.953"><defs><clipPath id="a"><path fill="none" d="M0 0h89.126v88.953H0z"/></clipPath></defs><g clip-path="url(#a)"><path fill="#060607" d="M89.127 45.519v1.39c-.344.24-.681 1.009-1.251 1.006l-6.534-.031c-.841 0-1.335-1.106-1.3-1.752.037-.668.594-1.619 1.426-1.622l6.275-.02c.64 0 1 .7 1.384 1.029m-9.764 12.424a1.81 1.81 0 0 1 .144 2.528 1.665 1.665 0 0 1-2.335.236l-3.742-3.682a1.769 1.769 0 0 1 2.5-2.5Zm-3.558-20.261a1.653 1.653 0 0 1-2.374-.08 1.773 1.773 0 0 1 0-2.541l3.4-3.37a1.8 1.8 0 0 1 2.572.121 1.736 1.736 0 0 1-.162 2.469Zm-.751 6.905a1.763 1.763 0 1 1-.91 2.418 1.755 1.755 0 0 1 .91-2.418M52.222 88.953H6.963c-3.325-.128-5.311-2.863-5.913-5.915L1.039 22.8A6.06 6.06 0 0 1 0 19.633v-2.085l1.406-4.516-.01-7.1A7.04 7.04 0 0 1 7.355 0l44.612.009a6.91 6.91 0 0 1 5.7 5.507l.2 7.5 1.28 4.873c.452 1.719-.492 3.289-1.266 4.754l-.086 3.227 4.605-1.833a1.814 1.814 0 0 1 2.329 1.7l.032 12.776a7.863 7.863 0 0 1 0 15.3L64.7 66.828a1.706 1.706 0 0 1-2.224 1.448L57.8 66.468l-.018 16.853a7.33 7.33 0 0 1-5.556 5.632"/><path fill="#fff" d="M10.477 74.413c-.02.135-.07.338-.167.343a34 34 0 0 1-4.431-.129q-.808.137-1-.377V25.178a7.27 7.27 0 0 0 8.011-2.179 7.26 7.26 0 0 0 11.141 0 7.26 7.26 0 0 0 11.141 0 7.26 7.26 0 0 0 11.139 0 7.27 7.27 0 0 0 8.009 2.176v2.162l-21.963 8.827-9.558.015a9.992 9.992 0 1 0 .954 19.92l.035 9.92a1.765 1.765 0 0 0 1.8 1.8h6.967a1.77 1.77 0 0 0 1.8-1.8l.02-9.032 19.934 8v7.621H12.218a1.724 1.724 0 0 0-1.741 1.8"/><path fill="#e3454d" d="m64.69 50.133-.005-7.9a4.17 4.17 0 0 1 2.6 3.777 4.28 4.28 0 0 1-2.6 4.123"/><path fill="#64c5f2" d="M10.476 74.41a1.73 1.73 0 0 0 1.756 1.668l42.074.007-.01 6.1a3.324 3.324 0 0 1-3.491 3.3H8.38a3.39 3.39 0 0 1-3.507-3.475v-7.759Z"/><path fill="#060708" d="M28.925 79a1.709 1.709 0 1 1 1.28 3.168 1.72 1.72 0 0 1-2.14-.82 1.7 1.7 0 0 1 .86-2.348"/><path fill="#9ed8f7" d="M55.262 51.099c.134.019.327.055.346.157a8.7 8.7 0 0 1-.018 1.552q.178.978-.363 1.265l-.165.349a1.363 1.363 0 0 0-.094 2.71l.142.361c.135.017.335.058.347.156a19 19 0 0 1-.021 2.572q.179 1.015-.359 1.328l-20.714-8.306-.007-14.141 19.053-7.64.017 17.869a1.7 1.7 0 0 0 1.838 1.768"/><path fill="#fca740" d="m30.886 52.647-8.257.011a6.486 6.486 0 0 1-.129-12.972l8.37-.031Z"/><path fill="#cdcedd" d="m55.075 61.549.034-4.056.161-.349a1.365 1.365 0 0 0 .091-2.71l-.135-.36.035-2.975a1.68 1.68 0 0 0 1.618-1.639l.026-19.408 4.289-1.72v35.667Z"/><path fill="#4764ab" d="m30.905 64.296-3.649.052-.013-8.167 3.633-.036Z"/><path fill="#060708" d="M55.226 54.073a1.711 1.711 0 1 1-1.785 1.621 1.717 1.717 0 0 1 1.785-1.621"/><path fill="#2e4491" d="M33.407 18.521a3.72 3.72 0 0 1-3.9 3.6 3.81 3.81 0 0 1-3.742-3.877l.005-3.009h7.648Z"/><path fill="#fff" d="M22.27 18.35a3.765 3.765 0 0 1-3.906 3.767 3.82 3.82 0 0 1-3.737-3.869v-3h7.646Zm22.281 0a3.765 3.765 0 0 1-3.906 3.767 3.82 3.82 0 0 1-3.737-3.869v-3h7.646Z"/><path fill="#2e4491" d="M11.126 18.523a3.71 3.71 0 0 1-3.91 3.6 3.665 3.665 0 0 1-3.661-3.667l.841-3.207 6.743-.022Zm44.485-.126a3.643 3.643 0 0 1-3.815 3.73 3.807 3.807 0 0 1-3.754-3.881l.006-3.015h6.7Z"/><path fill="#64c5f2" d="M54.295 11.118H4.888l-.016-4.186a3.355 3.355 0 0 1 3.334-3.454h42.773a3.36 3.36 0 0 1 3.34 3.449Z"/><path fill="#060607" d="m33.314 9.004-7.361.015a1.723 1.723 0 1 1 0-3.445h7.281a1.73 1.73 0 0 1 1.729 1.654 1.69 1.69 0 0 1-1.647 1.777"/></g></svg>