<svg xmlns="http://www.w3.org/2000/svg" width="116.526" height="96.902" viewBox="0 0 116.526 96.902"><defs><clipPath id="a"><path fill="none" d="M0 0h116.526v96.902H0z"/></clipPath></defs><g clip-path="url(#a)"><path fill="#798c97" d="m99.65 74.676.051 4.512a1.8 1.8 0 0 0-1.871 1.828l.011 8.22a3.98 3.98 0 0 1-3.9 4.146H7.322a3.98 3.98 0 0 1-3.919-4.141l.017-5.242.258-.455h2.9l.1-42.239.455-.279.115 45.425a2.865 2.865 0 0 0 2.863 3.128H91.12a2.814 2.814 0 0 0 2.871-2.884l.008-31.354h3.838l-.025 17.473a1.837 1.837 0 0 0 1.838 1.86"/><path fill="#1f75bc" d="M89.883 1.824a1.716 1.716 0 0 0 1.7 1.712l16.332.035c.179.019.448.078.457.2a61 61 0 0 1 .042 7.041.9.9 0 0 1-.292.217l-32.447.1-.017-4.7a2.96 2.96 0 0 1 3.072-2.877h4.741a1.784 1.784 0 0 0 1.866-1.736Z"/><path fill="#8b9bab" d="m9.022 34.858-.138 4.54c-.622-.01-1.756.758-1.758 1.623l-.085 42.971H3.419L3.397 23.48c0-2.18 1.259-4.393 3.7-4.4l65.061-.041v3.82l-62.01.007a2.816 2.816 0 0 0-2.885 2.838l-.025 7.312a1.746 1.746 0 0 0 1.785 1.842"/><path fill="#060607" d="M0 7.062V4.331C.728 2.294 2.486.073 5.113.07L58.836 0l8.375 3.322a2.52 2.52 0 0 1 1.778 2.7c-.106 1.166-1.011 1.7-2.133 2.146l-7.514 3L4.6 11.106C2.229 11.1.715 8.836 0 7.062"/><path fill="#cfe0e6" d="m54.653 5.255-.03 2.514-49.121-.007a2.04 2.04 0 0 1-1.725-.939 1.9 1.9 0 0 1-.19-1.879Q28.933 4.749 54.37 4.8Z"/><path fill="#e1e8ee" d="m54.652 5.254-50.527.052a.48.48 0 0 1-.538-.366 1.96 1.96 0 0 1 1.912-1.377h49.09a3.9 3.9 0 0 1 .064 1.693"/><path fill="#b3c4d0" d="m60.515 4.36 3.095 1.286-5.452 2.231-.134-3.338a1.2 1.2 0 0 1 .235-.974q.631.275.417 1.173.929-.222 1.84-.376"/><path fill="#c5d6db" d="M60.514 4.36c-.01.484-1.18.815-2.313.924l.057-1.72Z"/><path fill="#060607" d="M85.334 1.818c.888 1.277-.627 1.984-1.856 2.191l-5.1.02a2.52 2.52 0 0 0-2.226 1.95l-.025 4.827-.454.327 32.189-.1.133-.357 4.638-.028-.013-4.476q-.555-2.737-4.4-2.137l-.3-.464-.213.454-16.286-.041c-1.093-.28-2.465-1.1-1.538-2.161A1.69 1.69 0 0 1 91.551.036l18.77-.016a6.83 6.83 0 0 1 6.205 5.319l-.079 44.486c0 2.631-2.7 5.339-5.129 5.37l-10.048.132-.05 18.138c0 .7-1.053 1.241-1.571 1.211-1.051.926-1.979-.451-2.275-1.558l.006-17.176a11.5 11.5 0 0 0-2.923-.142l-.016 31.057c-.275 2.13-1.312 2.958-3.391 3.176H10.1c-3.034.122-3.8-3.6-3.315-5.936.017-.083.166-.141.354-.19l-.01-42.887c-1.12-.55 1.179-2.709 1.76-1.623 1.08-1.033 1.964.475 2.231 1.7v37.144l-.454.28q37.975.21 76.19.113l.232-.347a11.6 11.6 0 0 0 3.022-.15l-.041-22.325-3.048.007-.19-.359-8.54-.075a.9.9 0 0 1-.491.39c-1.8.4-5.867-3.224-5.844-5.288q-.279-11.87-.265-23.753l-60.4.006-.172.029-.056 6.825c-.368.928-1.23 2.177-2.041 1.266-.93.977-1.786-.295-2.179-1.286-.154-.385-.134-7.258-.034-8.025A3.23 3.23 0 0 1 9.5 22.475l62.034-.066a8.7 8.7 0 0 0 .172-2.909l-64.6.04c-2.312.232-3.037 1.634-3.25 3.794l.02 60.379-.457.281.455.264-.016 5.12c.208 1.971 1.142 3.245 3.163 3.537l87.072.009c2.12-.238 3.05-1.511 3.29-3.548l.032-8.811c.373-1.058 1.253-2.291 2.286-1.377.543-.016 1.563.59 1.556 1.35l-.076 9.9a7.326 7.326 0 0 1-6.852 6.449l-87.393.017c-3.51 0-6.052-3.036-6.936-5.87v-69.64c.876-2.88 3.413-5.833 6.943-5.838l65.182-.1.088-9.512A6.52 6.52 0 0 1 78.11.094l5.579-.04a1.645 1.645 0 0 1 1.645 1.766"/><path fill="#cfe0e6" d="m108.072 14.485 5.033.012-.019 34.411a2.965 2.965 0 0 1-2.965 2.989l-31.366.014a3.13 3.13 0 0 1-3.107-3.213l-.084-2.753-.021-30.677a1.02 1.02 0 0 1 .238-.8l-.007 32.333h30a2.29 2.29 0 0 0 2.213-2.268Z"/><path fill="#3ca994" d="m10.679 83.922.218-.455q37.663.08 75.266.033a2.93 2.93 0 0 1 .775-1.344h3.648l-.04 4.022H10.677Z"/><path fill="#65b8a6" d="M86.938 82.157c.062.5-.027 1.845-.974 1.846l-75.286-.08a6.7 6.7 0 0 1 .057-1.765Z"/><path fill="#0263ad" d="m75.67 11.137 32.289-.2-.048-7.361 2.915.082a2.7 2.7 0 0 1 2.254 2.708l.024 4.739-5.506.032Z"/><path fill="#e1e8ee" d="m108.071 14.485.454.16-.083 29.917a2.717 2.717 0 0 1-2.637 2.7H76.051l-.366-.317q-.132-16.245.095-32.471Z"/><path fill="#060607" d="M92.158 19.915a13.178 13.178 0 1 1-10.762 15.318 13.166 13.166 0 0 1 10.762-15.318"/><path fill="#e76673" d="M99.321 34.606c.3.168.324.293.236.568-.692 2.154-5.168 4.426-7.325 4.878-1.628.341-3.516.56-4.945-.44a9.767 9.767 0 0 1 9.72-16.127l-4.146 8.626a1.76 1.76 0 0 0 .128 1.769 1.72 1.72 0 0 0 1.448.721Z"/><path fill="#e24a5d" d="M87.286 39.611a11.62 11.62 0 0 0 11.688-4.34 4.4 4.4 0 0 0 .347-.661l4.668-.006a9.8 9.8 0 0 1-6.538 7.573 9.7 9.7 0 0 1-10.164-2.562"/><path fill="#65b8a6" d="M101.144 25.919a6.34 6.34 0 0 1 .347 4.746l-.586.532-3.822-.028 2.9-6.122c.529.057.8.535 1.165.871"/><path fill="#3ca994" d="M100.906 31.197a13.6 13.6 0 0 0 .239-5.278 9.14 9.14 0 0 1 2.841 5.272Z"/><path fill="#fff" d="M78.294 55.381q4.44.026 8.9.095l.18.233q.009 11.36-.017 22.721l-.3.2q-38.209.1-76.387-.113V41.224a1.72 1.72 0 0 0-1.775-1.828l-.447-.273.117-3.954.465-.311a1.777 1.777 0 0 0 1.644-1.852l-.007-6.726 61.557-.006.013 22.621a6.563 6.563 0 0 0 6.06 6.485"/><path fill="#f3f6f7" d="m10.668 78.518 76.242.006V55.553l-8.616-.176 12.282-.029-.009 23.386-79.585.01c-.273 0-.3-.165-.314-.23"/><path fill="#060607" d="m64.943 73.769-46.71-.009a2.777 2.777 0 0 1-2.843-2.777l-.017-37.048a2.834 2.834 0 0 1 2.867-2.928l46.362-.02a2.873 2.873 0 0 1 3.1 2.82l.008 37.078a2.83 2.83 0 0 1-2.762 2.884"/><path fill="#e76673" d="m60.96 40.147-42.13.016-.021-5.565c14.008-.232 28.484-.127 42.505-.021q.132 2.613.1 5.241Z"/><path fill="#1e75bc" d="M23.044 67.008c-.05.176-.125.439-.261.452a28 28 0 0 1-3.8-.051.8.8 0 0 1-.192-.314l-.1-23.51 4.36.008Z"/><path fill="#f2f4f5" d="m36.798 50.214-10.325.01v-6.647h10.312Z"/><path fill="#f2f5f5" d="m50.536 50.227-10.3.006-.024-6.652h10.333Z"/><path fill="#f3f5f6" d="m36.803 60.285-10.346.016v-6.649h10.347Z"/><path fill="#f3f6f7" d="m50.541 60.288-10.309.014-.009-6.66h10.313Z"/><path fill="#e1e7ee" d="m60.972 63.722 3.332.008-.014 6.622-10.335-.009-.036-6.174a.43.43 0 0 1 .239-.451l.454.253a13 13 0 0 0 .084 2.535l5.366-.058a3.22 3.22 0 0 0 .444-2.435Z"/><path fill="#f3f5f6" d="M60.972 53.661c.177.022.446.083.453.207a50 50 0 0 1-.087 6.136.8.8 0 0 1-.3.188l-6.96.006a57 57 0 0 1 .08-6.546Z"/><path fill="#e1e7ee" d="M36.643 63.716a.43.43 0 0 1 .238.451l-.073 6.173-10.33.011-.1-6.182a.44.44 0 0 1 .25-.456l.452.254-.022 2.39a75 75 0 0 0 9.148.08l-.018-2.407Z"/><path fill="#e1e8ee" d="M50.529 67.012v3.339l-10.283-.008-.007-3.512.161-.452 9.871.173Z"/><path fill="#f3f6f7" d="m50.529 67.012-10.293-.181v-3.118h10.288Z"/><path fill="#f2f5f6" d="m36.644 63.716.021 3.244H26.599l.031-3.247Z"/><path fill="#e0495c" d="m60.96 40.147-.038-5.548H18.805a.74.74 0 0 1 .571-.236l44.918.048v5.74Z"/><path fill="#dfe6ec" d="m60.973 53.661 3.339.028-.048 6.606-10.329.016-.02-5.937a.87.87 0 0 1 .243-.721v6.433h6.735Z"/><path fill="#f3f5f6" d="m60.972 63.722-.069 2.05a1.09 1.09 0 0 1-1.053 1.167l-5.71.021.019-3.245Z"/><path fill="#0062ad" d="M23.044 67.008v3.351l-4.321-.01a43 43 0 0 0-.054-4.368l.029-22.393.186 23.373Z"/><path fill="#dee5eb" d="m64.301 50.2-10.323.1-.006-6.779 5.877-.024c1.511-.006 2.928.13 4.445.066Z"/><path fill="#f2f4f5" d="M54.16 43.699h6.739v6.374H54.16z"/><path fill="#060707" d="m83.85 73.734-8.756.024a2.807 2.807 0 0 1-2.858-2.8l.013-8.777a2.8 2.8 0 0 1 2.844-2.752l8.629.013c1.944 0 2.834 1.615 2.833 3.364v7.519c0 1.649-.7 3.4-2.7 3.406"/><path fill="#ffc446" d="m83.158 70.323-7.515.033-.081-7.537 7.563.026Z"/><path fill="#ffd55d" d="M80.33 66.135a1.2 1.2 0 0 1-1.177 1.368l-3.372.01v-4.471h4.527Z"/></g></svg>